<svg xmlns="http://www.w3.org/2000/svg" viewBox="0 0 32 32" role="img" aria-label="WhatsApp">
  <path fill="#25D366" d="M16 2.7A13.2 13.2 0 0 0 4.6 22.5L3 29.3l6.9-1.6A13.2 13.2 0 1 0 16 2.7Z"/>
  <path fill="#fff" d="M23.7 19.5c-.4-.2-2.4-1.2-2.8-1.3-.4-.2-.7-.2-1 .2-.3.4-1.1 1.3-1.3 1.6-.2.3-.5.3-.9.1a10.7 10.7 0 0 1-5.3-4.6c-.4-.7.4-.7 1.1-2.2.1-.3 0-.5-.1-.7l-1.2-2.8c-.3-.7-.6-.6-1-.6h-.8c-.3 0-.7.1-1.1.5-.4.4-1.4 1.4-1.4 3.3s1.4 3.8 1.6 4.1c.2.3 2.8 4.3 6.8 6 1 .4 1.7.7 2.3.8 1 .3 1.9.2 2.6.1.8-.1 2.4-1 2.7-1.9.3-.9.3-1.7.2-1.9-.1-.3-.4-.4-.8-.6Z"/>
</svg>
